<svg width="24" height="24" viewBox="0 0 24 24" fill="none" xmlns="http://www.w3.org/2000/svg">
<path d="M18.5782 11.9963L21.2856 14.7063L24 11.9963L21.2926 9.29289L18.5782 11.9963ZM12 5.41975L7.35505 10.063L4.64455 7.3577L12 0L19.3602 7.3577L16.6481 10.063L12 5.41975ZM2.70696 9.29289L5.4151 11.9963L2.70774 14.7024L0 11.9963L2.70696 9.29289ZM12 18.5787L16.6398 13.9354L19.3488 16.6423L11.9968 24L4.64455 16.6423L7.3519 13.9354L12 18.5787ZM12 14.7063L9.28871 11.9963L12 9.29289L14.7113 11.9963L12 14.7063Z" fill="white"/>
</svg>
