<svg width="332" height="278" viewBox="0 0 332 278" fill="none" xmlns="http://www.w3.org/2000/svg">
<path d="M231.655 8.07469C269.499 24.2241 294.729 64.0208 291.862 104.394C224.2 104.394 156.539 104.971 88.8773 103.817C88.8773 76.7095 98.0518 49.0249 117.547 29.9917C146.218 0.576762 193.81 -8.65145 231.655 8.07469Z" fill="white"/>
<path d="M228.788 267.618C232.801 267.618 236.242 269.925 236.242 272.809C236.242 275.693 232.801 278 228.788 278H119.841C115.827 278 112.387 275.693 112.387 272.809C112.387 269.925 115.827 267.618 119.841 267.618H228.788Z" fill="white"/>
<path d="M96.3315 278C100.448 278 103.786 274.643 103.786 270.502C103.786 266.361 100.448 263.004 96.3315 263.004C92.2147 263.004 88.8773 266.361 88.8773 270.502C88.8773 274.643 92.2147 278 96.3315 278Z" fill="white"/>
<path d="M161.699 250.315C165.816 250.315 169.154 246.958 169.154 242.817C169.154 238.676 165.816 235.319 161.699 235.319C157.583 235.319 154.245 238.676 154.245 242.817C154.245 246.958 157.583 250.315 161.699 250.315Z" fill="white"/>
<path d="M289.568 235.319C293.582 235.319 297.022 238.78 297.022 242.817C297.022 246.855 293.582 250.315 289.568 250.315H182.915C178.902 250.315 175.461 246.855 175.461 242.817C175.461 238.78 178.902 235.319 182.915 235.319H289.568Z" fill="white"/>
<path d="M21.7893 222.631C25.9062 222.631 29.2435 219.274 29.2435 215.133C29.2435 210.992 25.9062 207.635 21.7893 207.635C17.6725 207.635 14.3351 210.992 14.3351 215.133C14.3351 219.274 17.6725 222.631 21.7893 222.631Z" fill="white"/>
<path d="M127.869 207.635C131.883 207.635 135.323 211.095 135.323 215.133C135.323 219.17 131.883 222.631 127.869 222.631H40.1382C36.1244 222.631 32.684 219.17 32.684 215.133C32.684 211.095 36.1244 207.635 40.1382 207.635H127.869Z" fill="white"/>
<path d="M324.546 207.635C328.56 207.635 332 211.095 332 215.133C332 219.17 328.56 222.631 324.546 222.631H150.231C146.218 222.631 142.777 219.17 142.777 215.133C142.777 211.095 146.218 207.635 150.231 207.635H324.546Z" fill="white"/>
<path d="M291.862 179.95C295.876 179.95 299.316 183.411 299.316 187.448C299.316 191.485 295.876 194.946 291.862 194.946H77.9827C73.9689 194.946 70.5284 191.485 70.5284 187.448C70.5284 183.411 73.9689 179.95 77.9827 179.95H291.862Z" fill="white"/>
<path d="M54.4733 194.946C58.5901 194.946 61.9275 191.589 61.9275 187.448C61.9275 183.307 58.5901 179.95 54.4733 179.95C50.3564 179.95 47.019 183.307 47.019 187.448C47.019 191.589 50.3564 194.946 54.4733 194.946Z" fill="white"/>
<path d="M247.136 152.842C251.15 152.842 254.591 156.303 254.591 160.34C254.591 164.378 251.15 167.838 247.136 167.838H33.2573C29.2435 167.838 25.8031 164.378 25.8031 160.34C25.8031 156.303 29.2435 152.842 33.2573 152.842H247.136Z" fill="white"/>
<path d="M7.45423 167.838C11.5711 167.838 14.9085 164.481 14.9085 160.34C14.9085 156.199 11.5711 152.842 7.45423 152.842C3.33737 152.842 0 156.199 0 160.34C0 164.481 3.33737 167.838 7.45423 167.838Z" fill="white"/>
<path d="M54.4733 140.154C58.5901 140.154 61.9275 136.797 61.9275 132.656C61.9275 128.515 58.5901 125.158 54.4733 125.158C50.3564 125.158 47.019 128.515 47.019 132.656C47.019 136.797 50.3564 140.154 54.4733 140.154Z" fill="white"/>
<path d="M312.504 125.158C316.518 125.158 319.958 128.618 319.958 132.656C319.958 136.693 316.518 140.154 312.504 140.154H79.7029C75.6891 140.154 72.2487 136.693 72.2487 132.656C72.2487 128.618 75.6891 125.158 79.7029 125.158H312.504Z" fill="white"/>
</svg>
